<?xml version="1.0" encoding="UTF-8" standalone="no"?>
<!-- Created with Inkscape (http://www.inkscape.org/) -->

<svg
   xmlns:dc="http://purl.org/dc/elements/1.1/"
   xmlns:cc="http://creativecommons.org/ns#"
   xmlns:rdf="http://www.w3.org/1999/02/22-rdf-syntax-ns#"
   xmlns:svg="http://www.w3.org/2000/svg"
   xmlns="http://www.w3.org/2000/svg"
   xmlns:sodipodi="http://sodipodi.sourceforge.net/DTD/sodipodi-0.dtd"
   xmlns:inkscape="http://www.inkscape.org/namespaces/inkscape"
   width="311.50369"
   height="174.03369"
   id="svg3264"
   version="1.1"
   inkscape:version="0.48.4 r9939"
   sodipodi:docname="uoit_full_name.pdf">
  <defs
     id="defs3266">
    <clipPath
       clipPathUnits="userSpaceOnUse"
       id="clipPath30">
      <path
         inkscape:connector-curvature="0"
         d="m 308.52,433.317 174.96,0 0,65.123 -174.96,0 0,-65.123 z"
         id="path32" />
    </clipPath>
  </defs>
  <sodipodi:namedview
     id="base"
     pagecolor="#ffffff"
     bordercolor="#666666"
     borderopacity="1.0"
     inkscape:pageopacity="0.0"
     inkscape:pageshadow="2"
     inkscape:zoom="1"
     inkscape:cx="487.78102"
     inkscape:cy="69.870473"
     inkscape:document-units="px"
     inkscape:current-layer="layer1"
     showgrid="false"
     fit-margin-top="0"
     fit-margin-left="0"
     fit-margin-right="0"
     fit-margin-bottom="0"
     inkscape:window-width="1600"
     inkscape:window-height="850"
     inkscape:window-x="0"
     inkscape:window-y="0"
     inkscape:window-maximized="1" />
  <metadata
     id="metadata3269">
    <rdf:RDF>
      <cc:Work
         rdf:about="">
        <dc:format>image/svg+xml</dc:format>
        <dc:type
           rdf:resource="http://purl.org/dc/dcmitype/StillImage" />
        <dc:title></dc:title>
      </cc:Work>
    </rdf:RDF>
  </metadata>
  <g
     inkscape:label="Layer 1"
     inkscape:groupmode="layer"
     id="layer1"
     transform="translate(556.16428,-17.30321)">
    <rect
       style="opacity:1;fill:#ffffff;fill-opacity:1;stroke:#764e4e;stroke-width:0;stroke-linecap:round;stroke-linejoin:bevel;stroke-miterlimit:4;stroke-opacity:1;stroke-dasharray:none;stroke-dashoffset:0"
       id="rect3714"
       width="311.52344"
       height="174.03885"
       x="-556.18658"
       y="17.301294" />
    <g
       id="g34"
       transform="matrix(1.25,0,0,-1.25,-446.03918,63.52257)">
      <path
         d="m 0,0 0,-11.984 c 0,-2.576 0,-5.036 3.213,-5.036 3.155,0 3.155,2.315 3.155,5.094 l 0,11.926 2.865,0 0,-11.781 c 0,-2.808 -0.058,-5.239 -1.997,-6.687 -0.752,-0.55 -1.939,-1.186 -4.197,-1.186 -6.079,0 -6.165,4.254 -6.165,7.67 L -3.126,0 0,0 z"
         style="fill:#003c70;fill-opacity:1;fill-rule:nonzero;stroke:none"
         id="path36"
         inkscape:connector-curvature="0" />
    </g>
    <g
       id="g38"
       transform="matrix(1.25,0,0,-1.25,-425.77918,63.52257)">
      <path
         d="m 0,0 6.368,-13.923 0,13.923 2.663,0 0,-19.307 -2.981,0 -7.15,15.457 0,-15.457 -2.663,0 L -3.763,0 0,0 z"
         style="fill:#003c70;fill-opacity:1;fill-rule:nonzero;stroke:none"
         id="path40"
         inkscape:connector-curvature="0" />
    </g>
    <path
       d="m -405.98881,87.65632 -3.98125,0 0,-24.13375 3.98125,0 0,24.13375 z"
       style="fill:#003c70;fill-opacity:1;fill-rule:nonzero;stroke:none"
       id="path42"
       inkscape:connector-curvature="0" />
    <g
       id="g44"
       transform="matrix(1.25,0,0,-1.25,-398.79031,63.52257)">
      <path
         d="M 0,0 3.676,-15.4 7.353,0 10.159,0 5.094,-19.365 1.622,-19.307 -3.357,0 0,0 z"
         style="fill:#003c70;fill-opacity:1;fill-rule:nonzero;stroke:none"
         id="path46"
         inkscape:connector-curvature="0" />
    </g>
    <g
       id="g48"
       transform="matrix(1.25,0,0,-1.25,-369.59256,63.52257)">
      <path
         d="m 0,0 0,-2.548 -7.845,0 0,-5.557 6.166,0 0,-2.548 -6.166,0 0,-6.049 7.989,0 0,-2.605 -11.172,0 0,19.307 L 0,0 z"
         style="fill:#003c70;fill-opacity:1;fill-rule:nonzero;stroke:none"
         id="path50"
         inkscape:connector-curvature="0" />
    </g>
    <g
       id="g52"
       transform="matrix(1.25,0,0,-1.25,-362.35793,66.59882)">
      <path
         d="m 0,0 0,-6.31 2.46,0 c 2.286,0 3.184,1.39 3.184,3.3 C 5.644,0 3.156,0 2.489,0 L 0,0 z M 2.634,2.461 C 4.458,2.461 5.76,2.2 6.773,1.476 7.815,0.724 8.8,-0.753 8.8,-3.039 8.8,-6.541 6.657,-7.671 5.819,-8.104 l 3.676,-8.742 -3.446,0 -3.04,8.076 -3.009,0 0,-8.076 -3.185,0 0,19.307 5.819,0 z"
         style="fill:#003c70;fill-opacity:1;fill-rule:nonzero;stroke:none"
         id="path54"
         inkscape:connector-curvature="0" />
    </g>
    <g
       id="g56"
       transform="matrix(1.25,0,0,-1.25,-336.59918,70.107695)">
      <path
         d="m 0,0 c -0.607,1.794 -1.418,2.981 -3.415,2.981 -2.054,0 -2.633,-1.563 -2.633,-2.431 0,-1.737 1.561,-2.316 3.849,-3.213 2.228,-0.84 5.412,-2.056 5.412,-5.876 0,-2.779 -1.968,-5.847 -6.483,-5.847 -5.412,0 -6.368,4.081 -6.687,5.383 l 2.838,0.811 c 0.202,-0.869 0.78,-3.56 3.936,-3.56 2.662,0 3.125,1.882 3.125,2.779 0,1.823 -1.562,2.518 -3.299,3.155 -2.141,0.81 -3.039,1.157 -4.081,2.055 -0.898,0.782 -1.737,2.141 -1.737,3.936 0,2.634 1.853,5.442 5.934,5.442 4.544,0 5.558,-3.328 5.963,-4.66 L 0,0 z"
         style="fill:#003c70;fill-opacity:1;fill-rule:nonzero;stroke:none"
         id="path58"
         inkscape:connector-curvature="0" />
    </g>
    <path
       d="m -325.67381,87.65632 -3.98,0 0,-24.13375 3.98,0 0,24.13375 z"
       style="fill:#003c70;fill-opacity:1;fill-rule:nonzero;stroke:none"
       id="path60"
       inkscape:connector-curvature="0" />
    <g
       id="g62"
       transform="matrix(1.25,0,0,-1.25,-308.55906,63.52257)">
      <path
         d="m 0,0 0,-2.721 -4.313,0 0,-16.586 -3.185,0 0,16.586 -4.254,0 0,2.721 L 0,0 z"
         style="fill:#003c70;fill-opacity:1;fill-rule:nonzero;stroke:none"
         id="path64"
         inkscape:connector-curvature="0" />
    </g>
    <g
       id="g66"
       transform="matrix(1.25,0,0,-1.25,-303.38681,63.52257)">
      <path
         d="M 0,0 3.531,-8.046 7.119,0 10.19,0 4.834,-11.144 l 0,-8.163 -3.184,0 0,8.163 L -3.475,0 0,0 z"
         style="fill:#003c70;fill-opacity:1;fill-rule:nonzero;stroke:none"
         id="path68"
         inkscape:connector-curvature="0" />
    </g>
    <g
       id="g70"
       transform="matrix(1.25,0,0,-1.25,-445.38806,101.55582)">
      <path
         d="m 0,0 c -0.724,-1.65 -0.782,-4.225 -0.782,-5.412 0,-1.159 0.087,-3.735 0.782,-5.385 0.55,-1.245 1.302,-1.968 2.836,-1.968 1.621,0 2.316,0.983 2.751,1.968 0.723,1.708 0.781,4.342 0.781,5.385 C 6.368,-4.081 6.281,-1.621 5.587,0 5.152,0.956 4.487,1.969 2.807,1.969 1.158,1.969 0.463,1.043 0,0 m 9.726,-5.412 c 0,-3.966 -0.898,-9.987 -6.89,-9.987 -5.789,0 -6.975,5.498 -6.975,9.987 0,4.427 1.157,10.014 6.946,10.014 5.761,0 6.919,-5.499 6.919,-10.014"
         style="fill:#003c70;fill-opacity:1;fill-rule:nonzero;stroke:none"
         id="path72"
         inkscape:connector-curvature="0" />
    </g>
    <g
       id="g74"
       transform="matrix(1.25,0,0,-1.25,-416.62518,96.236695)">
      <path
         d="m 0,0 0,-2.548 -7.526,0 0,-5.788 6.021,0 0,-2.548 -6.021,0 0,-8.424 -3.184,0 L -10.71,0 0,0 z"
         style="fill:#003c70;fill-opacity:1;fill-rule:nonzero;stroke:none"
         id="path76"
         inkscape:connector-curvature="0" />
    </g>
    <g
       id="g78"
       transform="matrix(1.25,0,0,-1.25,-403.34893,101.55582)">
      <path
         d="m 0,0 c -0.723,-1.65 -0.781,-4.225 -0.781,-5.412 0,-1.159 0.087,-3.735 0.781,-5.385 0.55,-1.245 1.303,-1.968 2.837,-1.968 1.621,0 2.316,0.983 2.749,1.968 0.723,1.708 0.782,4.342 0.782,5.385 C 6.368,-4.081 6.281,-1.621 5.586,0 5.153,0.956 4.488,1.969 2.809,1.969 1.158,1.969 0.463,1.043 0,0 m 9.727,-5.412 c 0,-3.966 -0.898,-9.987 -6.89,-9.987 -5.789,0 -6.976,5.498 -6.976,9.987 0,4.427 1.158,10.014 6.948,10.014 5.759,0 6.918,-5.499 6.918,-10.014"
         style="fill:#003c70;fill-opacity:1;fill-rule:nonzero;stroke:none"
         id="path80"
         inkscape:connector-curvature="0" />
    </g>
    <g
       id="g82"
       transform="matrix(1.25,0,0,-1.25,-383.34118,96.236695)">
      <path
         d="m 0,0 6.368,-13.923 0,13.923 2.662,0 0,-19.308 -2.98,0 -7.15,15.458 0,-15.458 -2.664,0 L -3.764,0 0,0 z"
         style="fill:#003c70;fill-opacity:1;fill-rule:nonzero;stroke:none"
         id="path84"
         inkscape:connector-curvature="0" />
    </g>
    <g
       id="g86"
       transform="matrix(1.25,0,0,-1.25,-354.54243,96.236695)">
      <path
         d="m 0,0 0,-2.721 -4.313,0 0,-16.587 -3.184,0 0,16.587 -4.255,0 0,2.721 L 0,0 z"
         style="fill:#003c70;fill-opacity:1;fill-rule:nonzero;stroke:none"
         id="path88"
         inkscape:connector-curvature="0" />
    </g>
    <g
       id="g90"
       transform="matrix(1.25,0,0,-1.25,-344.08268,111.18057)">
      <path
         d="M 0,0 -2.172,8.858 -4.371,0 0,0 z m -0.058,11.955 5.152,-19.307 -3.242,0 -1.216,4.833 -5.616,0 -1.187,-4.833 -3.069,0 5.588,19.307 3.59,0 z"
         style="fill:#003c70;fill-opacity:1;fill-rule:nonzero;stroke:none"
         id="path92"
         inkscape:connector-curvature="0" />
    </g>
    <g
       id="g94"
       transform="matrix(1.25,0,0,-1.25,-331.42268,99.312945)">
      <path
         d="m 0,0 0,-6.31 2.462,0 c 2.285,0 3.183,1.389 3.183,3.3 C 5.645,0 3.155,0 2.489,0 L 0,0 z m 2.635,2.461 c 1.823,0 3.126,-0.26 4.14,-0.985 C 7.815,0.725 8.8,-0.752 8.8,-3.038 8.8,-6.542 6.659,-7.669 5.819,-8.105 l 3.675,-8.742 -3.444,0 -3.039,8.077 -3.011,0 0,-8.077 -3.184,0 0,19.308 5.819,0 z"
         style="fill:#003c70;fill-opacity:1;fill-rule:nonzero;stroke:none"
         id="path96"
         inkscape:connector-curvature="0" />
    </g>
    <path
       d="m -312.32131,120.37132 -3.98,0 0,-24.135 3.98,0 0,24.135 z"
       style="fill:#003c70;fill-opacity:1;fill-rule:nonzero;stroke:none"
       id="path98"
       inkscape:connector-curvature="0" />
    <g
       id="g100"
       transform="matrix(1.25,0,0,-1.25,-303.63556,101.55582)">
      <path
         d="m 0,0 c -0.725,-1.65 -0.782,-4.225 -0.782,-5.412 0,-1.159 0.086,-3.735 0.782,-5.385 0.549,-1.245 1.301,-1.968 2.835,-1.968 1.623,0 2.316,0.983 2.752,1.968 0.723,1.708 0.781,4.342 0.781,5.385 C 6.368,-4.081 6.28,-1.621 5.587,0 5.151,0.956 4.485,1.969 2.806,1.969 1.156,1.969 0.462,1.043 0,0 m 9.725,-5.412 c 0,-3.966 -0.897,-9.987 -6.89,-9.987 -5.788,0 -6.974,5.498 -6.974,9.987 0,4.427 1.158,10.014 6.945,10.014 5.761,0 6.919,-5.499 6.919,-10.014"
         style="fill:#003c70;fill-opacity:1;fill-rule:nonzero;stroke:none"
         id="path102"
         inkscape:connector-curvature="0" />
    </g>
    <path
       d="m -507.51756,144.18382 -1.7925,0 0,-14.75625 1.7925,0 0,14.75625 z"
       style="fill:#0077ca;fill-opacity:1;fill-rule:nonzero;stroke:none"
       id="path104"
       inkscape:connector-curvature="0" />
    <g
       id="g106"
       transform="matrix(1.25,0,0,-1.25,-502.25281,129.42719)">
      <path
         d="m 0,0 4.514,-9.327 0,9.327 1.239,0 0,-11.805 -1.416,0 -4.921,10.054 0,-10.054 -1.239,0 L -1.823,0 0,0 z"
         style="fill:#0077ca;fill-opacity:1;fill-rule:nonzero;stroke:none"
         id="path108"
         inkscape:connector-curvature="0" />
    </g>
    <g
       id="g110"
       transform="matrix(1.25,0,0,-1.25,-485.70393,133.25244)">
      <path
         d="m 0,0 c -0.319,0.956 -0.743,2.104 -2.372,2.104 -1.611,0 -1.964,-1.22 -1.964,-1.839 0,-1.24 0.973,-1.629 2.601,-2.249 1.381,-0.53 3.364,-1.291 3.364,-3.556 0,-1.47 -0.992,-3.453 -3.771,-3.453 -1.009,0 -2.159,0.301 -2.903,0.992 -0.832,0.761 -1.044,1.717 -1.168,2.353 l 1.31,0.373 c 0.177,-0.779 0.584,-2.514 2.797,-2.514 1.77,0 2.248,1.238 2.248,2.017 0,1.399 -1.204,1.912 -2.319,2.338 -1.363,0.53 -1.912,0.742 -2.531,1.291 -0.62,0.549 -1.027,1.452 -1.027,2.336 0,1.434 1.044,3.116 3.487,3.116 2.655,0 3.275,-2.088 3.523,-2.938 L 0,0 z"
         style="fill:#0077ca;fill-opacity:1;fill-rule:nonzero;stroke:none"
         id="path112"
         inkscape:connector-curvature="0" />
    </g>
    <g
       id="g114"
       transform="matrix(1.25,0,0,-1.25,-474.37743,129.42719)">
      <path
         d="m 0,0 0,-1.203 -2.832,0 0,-10.602 -1.434,0 0,10.602 -2.815,0 0,1.203 L 0,0 z"
         style="fill:#0077ca;fill-opacity:1;fill-rule:nonzero;stroke:none"
         id="path116"
         inkscape:connector-curvature="0" />
    </g>
    <path
       d="m -471.19256,144.18382 -1.7925,0 0,-14.75625 1.7925,0 0,14.75625 z"
       style="fill:#0077ca;fill-opacity:1;fill-rule:nonzero;stroke:none"
       id="path118"
       inkscape:connector-curvature="0" />
    <g
       id="g120"
       transform="matrix(1.25,0,0,-1.25,-460.97168,129.42719)">
      <path
         d="m 0,0 0,-1.203 -2.832,0 0,-10.602 -1.434,0 0,10.602 -2.814,0 L -7.08,0 0,0 z"
         style="fill:#0077ca;fill-opacity:1;fill-rule:nonzero;stroke:none"
         id="path122"
         inkscape:connector-curvature="0" />
    </g>
    <g
       id="g124"
       transform="matrix(1.25,0,0,-1.25,-457.76481,129.42719)">
      <path
         d="m 0,0 0,-7.805 c 0,-1.559 0,-3.045 2.159,-3.045 2.231,0 2.231,1.576 2.231,3.115 l 0,7.735 1.345,0 0,-7.664 c 0,-1.769 0,-4.389 -3.628,-4.389 -3.452,0 -3.541,2.477 -3.541,4.248 L -1.434,0 0,0 z"
         style="fill:#0077ca;fill-opacity:1;fill-rule:nonzero;stroke:none"
         id="path126"
         inkscape:connector-curvature="0" />
    </g>
    <g
       id="g128"
       transform="matrix(1.25,0,0,-1.25,-440.39768,129.42719)">
      <path
         d="m 0,0 0,-1.203 -2.832,0 0,-10.602 -1.434,0 0,10.602 -2.815,0 0,1.203 L 0,0 z"
         style="fill:#0077ca;fill-opacity:1;fill-rule:nonzero;stroke:none"
         id="path130"
         inkscape:connector-curvature="0" />
    </g>
    <g
       id="g132"
       transform="matrix(1.25,0,0,-1.25,-431.01743,129.42719)">
      <path
         d="m 0,0 0,-1.184 -4.992,0 0,-3.913 3.93,0 0,-1.186 -3.93,0 0,-4.337 5.133,0 0,-1.185 -6.567,0 L -6.426,0 0,0 z"
         style="fill:#0077ca;fill-opacity:1;fill-rule:nonzero;stroke:none"
         id="path134"
         inkscape:connector-curvature="0" />
    </g>
    <g
       id="g136"
       transform="matrix(1.25,0,0,-1.25,-422.52368,132.1682)">
      <path
         d="m 0,0 c -0.513,-0.993 -0.672,-2.461 -0.672,-3.719 0,-1.327 0.176,-2.743 0.672,-3.68 0.46,-0.887 1.062,-1.275 2.071,-1.275 1.027,0 1.593,0.494 2,1.256 0.531,0.991 0.673,2.478 0.673,3.699 0,1.364 -0.178,2.779 -0.673,3.7 C 3.682,0.725 3.151,1.256 2.036,1.256 1.009,1.256 0.425,0.795 0,0 m 6.231,-3.719 c 0,-2.583 -0.638,-6.141 -4.16,-6.141 -3.664,0 -4.23,3.788 -4.23,6.141 0,2.479 0.619,6.161 4.23,6.161 3.505,0 4.16,-3.523 4.16,-6.161"
         style="fill:#0077ca;fill-opacity:1;fill-rule:nonzero;stroke:none"
         id="path138"
         inkscape:connector-curvature="0" />
    </g>
    <g
       id="g140"
       transform="matrix(1.25,0,0,-1.25,-405.02368,129.42719)">
      <path
         d="m 0,0 0,-1.184 -4.762,0 0,-3.913 3.912,0 0,-1.186 -3.912,0 0,-5.522 -1.433,0 L -6.195,0 0,0 z"
         style="fill:#0077ca;fill-opacity:1;fill-rule:nonzero;stroke:none"
         id="path142"
         inkscape:connector-curvature="0" />
    </g>
    <g
       id="g144"
       transform="matrix(1.25,0,0,-1.25,-391.70581,129.42719)">
      <path
         d="m 0,0 0,-1.203 -2.833,0 0,-10.602 -1.433,0 0,10.602 -2.815,0 0,1.203 L 0,0 z"
         style="fill:#0077ca;fill-opacity:1;fill-rule:nonzero;stroke:none"
         id="path146"
         inkscape:connector-curvature="0" />
    </g>
    <g
       id="g148"
       transform="matrix(1.25,0,0,-1.25,-382.25868,129.42719)">
      <path
         d="m 0,0 0,-1.184 -4.992,0 0,-3.913 3.93,0 0,-1.186 -3.93,0 0,-4.337 5.133,0 0,-1.185 -6.567,0 L -6.426,0 0,0 z"
         style="fill:#0077ca;fill-opacity:1;fill-rule:nonzero;stroke:none"
         id="path150"
         inkscape:connector-curvature="0" />
    </g>
    <g
       id="g152"
       transform="matrix(1.25,0,0,-1.25,-371.39693,139.95707)">
      <path
         d="m 0,0 c -0.318,-1.77 -0.957,-3.629 -3.647,-3.629 -3.575,0 -4.106,3.77 -4.106,6.106 0,1.611 0.248,6.196 4.159,6.196 2.903,0 3.453,-2.514 3.666,-3.594 L -1.292,4.744 c -0.23,1.15 -0.55,2.724 -2.267,2.724 -2.601,0 -2.673,-3.786 -2.673,-4.956 0,-1.646 0.267,-4.938 2.673,-4.938 1.329,0 1.842,0.709 2.267,2.744 L 0,0 z"
         style="fill:#0077ca;fill-opacity:1;fill-rule:nonzero;stroke:none"
         id="path154"
         inkscape:connector-curvature="0" />
    </g>
    <g
       id="g156"
       transform="matrix(1.25,0,0,-1.25,-369.27493,129.42719)">
      <path
         d="m 0,0 1.434,0 0,-5.009 4.301,0 0,5.009 1.434,0 0,-11.805 -1.434,0 0,5.611 -4.301,0 0,-5.611 -1.434,0 L 0,0 z"
         style="fill:#0077ca;fill-opacity:1;fill-rule:nonzero;stroke:none"
         id="path158"
         inkscape:connector-curvature="0" />
    </g>
    <g
       id="g160"
       transform="matrix(1.25,0,0,-1.25,-354.82718,129.42719)">
      <path
         d="m 0,0 4.513,-9.327 0,9.327 1.239,0 0,-11.805 -1.416,0 -4.921,10.054 0,-10.054 -1.238,0 L -1.823,0 0,0 z"
         style="fill:#0077ca;fill-opacity:1;fill-rule:nonzero;stroke:none"
         id="path162"
         inkscape:connector-curvature="0" />
    </g>
    <g
       id="g164"
       transform="matrix(1.25,0,0,-1.25,-342.94868,132.1682)">
      <path
         d="m 0,0 c -0.513,-0.993 -0.672,-2.461 -0.672,-3.719 0,-1.327 0.177,-2.743 0.672,-3.68 0.461,-0.887 1.062,-1.275 2.071,-1.275 1.026,0 1.594,0.494 2,1.256 0.532,0.991 0.673,2.478 0.673,3.699 0,1.364 -0.177,2.779 -0.673,3.7 C 3.682,0.725 3.151,1.256 2.036,1.256 1.009,1.256 0.426,0.795 0,0 m 6.232,-3.719 c 0,-2.583 -0.64,-6.141 -4.161,-6.141 -3.664,0 -4.23,3.788 -4.23,6.141 0,2.479 0.62,6.161 4.23,6.161 3.505,0 4.161,-3.523 4.161,-6.161"
         style="fill:#0077ca;fill-opacity:1;fill-rule:nonzero;stroke:none"
         id="path166"
         inkscape:connector-curvature="0" />
    </g>
    <g
       id="g168"
       transform="matrix(1.25,0,0,-1.25,-330.73806,129.42719)">
      <path
         d="m 0,0 0,-10.62 4.479,0 0,-1.185 -5.912,0 L -1.433,0 0,0 z"
         style="fill:#0077ca;fill-opacity:1;fill-rule:nonzero;stroke:none"
         id="path170"
         inkscape:connector-curvature="0" />
    </g>
    <g
       id="g172"
       transform="matrix(1.25,0,0,-1.25,-321.90881,132.1682)">
      <path
         d="m 0,0 c -0.516,-0.993 -0.674,-2.461 -0.674,-3.719 0,-1.327 0.178,-2.743 0.674,-3.68 0.46,-0.887 1.06,-1.275 2.071,-1.275 1.025,0 1.591,0.494 1.999,1.256 0.531,0.991 0.672,2.478 0.672,3.699 0,1.364 -0.176,2.779 -0.672,3.7 C 3.682,0.725 3.15,1.256 2.034,1.256 1.009,1.256 0.424,0.795 0,0 m 6.23,-3.719 c 0,-2.583 -0.638,-6.141 -4.159,-6.141 -3.664,0 -4.232,3.788 -4.232,6.141 0,2.479 0.621,6.161 4.232,6.161 3.504,0 4.159,-3.523 4.159,-6.161"
         style="fill:#0077ca;fill-opacity:1;fill-rule:nonzero;stroke:none"
         id="path174"
         inkscape:connector-curvature="0" />
    </g>
    <g
       id="g176"
       transform="matrix(1.25,0,0,-1.25,-302.30831,136.88282)">
      <path
         d="m 0,0 0,-6 -0.991,0 -0.195,1.611 c -0.3,-0.549 -0.902,-1.699 -2.832,-1.699 -3.541,0 -4.055,4.107 -4.055,6.053 0,2.531 0.621,6.249 4.32,6.249 2.426,0 3.205,-1.523 3.647,-3.241 L -1.397,2.479 c -0.338,1.185 -0.727,2.53 -2.391,2.53 -2.089,0 -2.761,-2.105 -2.761,-4.919 0,-1.86 0.3,-4.975 2.761,-4.975 2.461,0 2.408,2.938 2.391,3.7 l -2.409,0 0,1.185 L 0,0 z"
         style="fill:#0077ca;fill-opacity:1;fill-rule:nonzero;stroke:none"
         id="path178"
         inkscape:connector-curvature="0" />
    </g>
    <g
       id="g180"
       transform="matrix(1.25,0,0,-1.25,-299.58993,129.42719)">
      <path
         d="M 0,0 2.585,-5.433 5.134,0 6.443,0 3.187,-6.814 l 0,-4.991 -1.434,0 0,4.991 L -1.521,0 0,0 z"
         style="fill:#0077ca;fill-opacity:1;fill-rule:nonzero;stroke:none"
         id="path182"
         inkscape:connector-curvature="0" />
    </g>
    <g
       id="g184"
       transform="matrix(1.25,0,0,-1.25,-479.16243,120.63419)">
      <path
         d="m 0,0 c -9.697,0 -14.147,8.666 -14.147,17.426 0,8.759 4.45,17.425 14.147,17.425 7.31,0 11.637,-4.925 13.325,-11.103 l -0.035,21.945 -37.44,0 0.02,-28.091 c 0.373,-10.997 8.398,-18.677 18.695,-18.677 1.769,0 3.646,0.376 5.504,1.077 C 0.045,0.002 0.023,0 0,0"
         style="fill:#0077ca;fill-opacity:1;fill-rule:nonzero;stroke:none"
         id="path186"
         inkscape:connector-curvature="0" />
    </g>
    <g
       id="g188"
       transform="matrix(1.25,0,0,-1.25,-479.16243,78.768195)">
      <path
         d="m 0,0 c -7.776,0 -8.338,-10.539 -8.338,-16.067 0,-5.527 0.562,-16.068 8.338,-16.068 7.777,0 8.338,10.541 8.338,16.068 C 8.338,-10.539 7.777,0 0,0"
         style="fill:#0077ca;fill-opacity:1;fill-rule:nonzero;stroke:none"
         id="path190"
         inkscape:connector-curvature="0" />
    </g>
  </g>
</svg>
